<svg version="1.1" xmlns="http://www.w3.org/2000/svg" xmlns:xlink="http://www.w3.org/1999/xlink" x="0px" y="0px" viewBox="0 0 256 256" enable-background="new 0 0 256 256" xml:space="preserve"><metadata> Svg Vector Icons : http://www.onlinewebfonts.com/icon </metadata><g><g><g><path fill="#000000" d="M222.3,12.1c-3,0.7-8.3,3.5-11,5.7c-3.1,2.6-65.2,46.2-66.1,46.3c-0.3,0.1-3.3-0.6-6.5-1.5c-32.4-9.3-80.1-18-108.5-19.9c-4.8-0.3-9.9-0.4-11.7-0.2c-3,0.3-3.4,0.6-4.9,2.1c-4.4,4.7-4.3,15.1,0.1,19.4c1.8,1.7,76.1,60.3,76.4,60.2c0.4,0,4.2-5,4.2-5.4c0-0.2-17-13.8-37.8-30.2C35.6,72.4,18.3,58.5,17.9,57.9c-1.1-1.7-1.3-4.5-0.4-6.4l0.8-1.7h5.5c23.5,0,83.3,10.8,117.4,21.1l5.2,1.6l33.1-23.1c18.2-12.7,34.4-24.2,36-25.6c6.3-5.3,12.2-6.6,17.1-3.8c8,4.6,8.3,12.8,0.9,20.9c-2.5,2.7-48.6,63.9-49.1,65.1c-0.1,0.3,1.4,5.5,3.3,11.4c11.4,34.8,19.6,71.7,21.8,97.7c0.5,6.8,0.3,13.6-0.6,16.1c-0.3,0.8-1.1,1.7-1.9,2.1c-1.8,1-5.5,0.9-7.2-0.1c-0.8-0.5-14.5-17.8-31-39c-16.3-21-29.8-38.4-29.9-38.7c-0.2-0.3-1.6,0.7-3.7,2.8c-2.5,2.4-9.2,7.3-24.9,17.9c-11.8,8-21.7,14.8-22.1,15.2c-0.6,0.5-0.2,4.1,2.3,21.7c1.8,13,2.8,21.7,2.6,22.5c-0.5,2.2-1.6,2.1-3.7-0.2c-2.8-3.1-8.3-12.7-20.6-36.4l-5.1-9.7l-21.9-11.1c-12-6.1-22.6-11.7-23.5-12.5c-1.6-1.4-1.6-1.4-0.7-2.3c1.3-1.3,4.2-0.9,26.7,3.6c10.9,2.2,19.8,4,19.9,3.9c1.3-1.7,6.8-10.2,6.8-10.4c0-0.6-5.5-4-6-3.7c-0.2,0.1-1.3,1.5-2.2,3.1c-1,1.5-2.1,2.8-2.5,2.8s-8.6-1.6-18.4-3.5c-10.9-2.2-18.9-3.5-20.7-3.6c-4.7,0-8.9,2.1-10.6,5.5c-1.5,2.9,0.8,8.2,5.3,11.6c1.2,0.9,11.2,6.2,22.1,11.7c10.9,5.5,20.2,10.4,20.6,10.9c0.4,0.4,3.3,5.9,6.6,12c7.4,14.3,13.6,25.5,15.4,28.2c2.1,3.2,5.9,6.7,8.3,7.8c4.3,2.1,8,0.9,10.2-3.3c2-3.8,1.8-7.2-0.8-26.3c-1.3-9.3-2.4-17.3-2.4-17.8c0-0.7,5.4-4.6,21.1-15.2c20.2-13.8,21.1-14.3,21.9-13.5c0.4,0.5,12.6,16,27,34.6c14.4,18.6,27.1,34.7,28.3,35.8c2.6,2.4,5.9,3.6,10.1,3.6c2.7,0,3.6-0.3,6.3-1.6c5.6-2.8,6.5-5.4,6.4-19.1c0-10-1.1-19.7-3.5-33.1c-4-22.1-10.6-48.2-18.3-72l-2.5-7.9l21.4-28.7c11.8-15.8,22.6-30,23.9-31.5c8.1-9.2,10.3-17.8,6.7-25.4c-1.4-2.9-5.7-7-9-8.6c-2.4-1.2-3.4-1.4-7-1.5C226,11.7,223.3,11.8,222.3,12.1z"/></g></g></g></svg>