<svg version="1.1" id="Layer_1" xmlns="http://www.w3.org/2000/svg" xmlns:xlink="http://www.w3.org/1999/xlink" x="0px" y="0px"	width="1024px" height="1024px" viewBox="0 0 1024 1024" enable-background="new 0 0 1024 1024" xml:space="preserve"><rect fill="none" width="1024" height="1024"/><g><path fill-rule="evenodd" clip-rule="evenodd" d="M542.892,551.51c-42.055,8.717-83.763,16.561-125.079,26.089	c-90.312,20.834-179.712,16.844-268.666-7.407c-15.509-4.232-18.534-12.291-9.225-25.313c8.339-11.665,7.305-22.134-3.698-34.539	c-32.467-36.601-65.008-73.132-97.502-109.708c-11.391-12.825-9.921-12.877,4.42-20.122c34.685-17.525,61.088,0.072,88.694,16.868	c41.922,25.506,84.253,50.362,126.703,74.991c3.817,2.215,10.254,2.211,14.686,0.796c95.644-30.452,191.111-61.445,286.739-91.923	c86.982-27.729,173.858-55.83,261.285-82.101c48.334-14.533,96.179-11.336,141.088,14.319c32.43,18.529,36.088,50.046,7.849,74.352	c-24.816,21.354-55.679,30.755-85.973,41.229c-59.172,20.458-118.274,41.131-177.167,62.365c-4.232,1.528-8.795,8.057-9.4,12.743	c-12.15,94.344-23.862,188.745-35.322,283.174c-1.796,14.812-8.951,22.607-23.771,25.763c-39.41,8.39-43.123,6.209-50.677-32.886	c-13.69-70.864-27.532-141.692-41.347-212.527C545.535,562.576,544.257,557.537,542.892,551.51z"/><path fill-rule="evenodd" clip-rule="evenodd" d="M601.058,344.552c-45.972,14.387-88.745,27.952-131.712,40.886	c-3.392,1.021-9.346-1.122-12.047-3.825c-51.016-51.089-101.754-102.451-152.414-153.897c-3.616-3.671-6.536-8.184-9.111-12.681	c-5.001-8.763-2.626-15.715,6.586-19.77c20.867-9.188,39.756-11.849,61.63,2.465c59.748,39.105,121.273,75.523,182.098,113	C563.497,321.451,580.922,332.162,601.058,344.552z"/></g><rect y="852" fill-rule="evenodd" clip-rule="evenodd" width="1024" height="38"/></svg>
