<svg xmlns="http://www.w3.org/2000/svg" xmlns:xlink="http://www.w3.org/1999/xlink" xmlns:serif="http://www.serif.com/" viewBox="0 0 32 40" version="1.1" xml:space="preserve" style="" x="0px" y="0px" fill-rule="evenodd" clip-rule="evenodd" stroke-linejoin="round" stroke-miterlimit="2"><path d="M24,19.171c-1.165,0.412 -2,1.524 -2,2.829c-0,1.305 0.835,2.417 2,2.829l-0,2.171c0,0.552 0.448,1 1,1c0.552,-0 1,-0.448 1,-1l-0,-2.171c1.165,-0.412 2,-1.524 2,-2.829c-0,-1.305 -0.835,-2.417 -2,-2.829l-0,-14.183c0,-0.552 -0.448,-1 -1,-1c-0.552,-0 -1,0.448 -1,1l-0,14.183Z"/><path d="M15.006,7.159c-1.164,0.412 -2,1.523 -2,2.829c0,1.305 0.836,2.417 2,2.829l0,14.183c0,0.552 0.448,1 1,1c0.552,0 1,-0.448 1,-1l0,-14.183c1.165,-0.412 2,-1.524 2,-2.829c0,-1.306 -0.835,-2.417 -2,-2.829l0,-2.171c0,-0.552 -0.448,-1 -1,-1c-0.552,-0 -1,0.448 -1,1l0,2.171Z"/><path d="M6,19.176c-1.157,0.416 -1.986,1.524 -1.986,2.824c-0,1.3 0.829,2.408 1.986,2.824l0,2.176c-0,0.552 0.448,1 1,1c0.552,0 1,-0.448 1,-1l0,-2.166c1.172,-0.408 2.014,-1.524 2.014,-2.834c-0,-1.31 -0.842,-2.426 -2.014,-2.834l0,-14.178c-0,-0.552 -0.448,-1 -1,-1c-0.552,-0 -1,0.448 -1,1l0,14.188Z"/><text x="0" y="47" fill="#000000" font-size="5px" font-weight="bold" font-family="'Helvetica Neue', Helvetica, Arial-Unicode, Arial, Sans-serif">Created by erix subyarko</text><text x="0" y="52" fill="#000000" font-size="5px" font-weight="bold" font-family="'Helvetica Neue', Helvetica, Arial-Unicode, Arial, Sans-serif">from the Noun Project</text></svg>